<?xml version="1.0" standalone="no"?><!DOCTYPE svg PUBLIC "-//W3C//DTD SVG 1.1//EN" "http://www.w3.org/Graphics/SVG/1.1/DTD/svg11.dtd"><svg t="1536502761862" class="icon" style="" viewBox="0 0 1024 1024" version="1.1" xmlns="http://www.w3.org/2000/svg" p-id="1076" xmlns:xlink="http://www.w3.org/1999/xlink" width="64" height="64"><defs><style type="text/css"></style></defs><path d="M232 795.2c8 20.8 27.2 33.6 49.6 33.6h460.8c22.4 0 41.6-12.8 49.6-33.6s3.2-43.2-12.8-57.6L537.6 512l235.2-219.2c17.6-16 22.4-40 14.4-62.4s-28.8-35.2-52.8-35.2H291.2c-24 0-44.8 14.4-52.8 35.2s-3.2 46.4 14.4 62.4L486.4 512l-240 225.6c-16 14.4-22.4 36.8-14.4 57.6z m35.2-552c1.6-3.2 8-16 22.4-16h443.2c16 0 20.8 11.2 22.4 16 1.6 3.2 4.8 16-6.4 27.2l-102.4 96H376l-102.4-96c-11.2-11.2-8-24-6.4-27.2z m126.4 137.6h236.8l-116.8 108.8H512l-1.6 1.6-116.8-110.4z m118.4 153.6l192 176H320l192-176zM267.2 760l35.2-33.6H720l35.2 33.6c9.6 9.6 6.4 20.8 4.8 24s-6.4 12.8-19.2 12.8H281.6c-12.8 0-19.2-9.6-19.2-12.8s-4.8-14.4 4.8-24z" fill="#64D86C" p-id="1077"></path></svg>